<svg width="27" height="27" viewBox="0 0 27 27" fill="none" xmlns="http://www.w3.org/2000/svg">
<path d="M13.5 7.23916L4.58391 14.9977C4.58391 15.0087 4.5813 15.0248 4.57609 15.0467C4.57098 15.0685 4.56827 15.0843 4.56827 15.0956V22.9519C4.56827 23.2356 4.66652 23.4814 4.86297 23.6884C5.05936 23.8955 5.29193 23.9998 5.56072 23.9998H11.515V17.7145H15.4851V24H21.4394C21.7081 24 21.941 23.896 22.1371 23.6884C22.3336 23.4816 22.4321 23.2356 22.4321 22.9519V15.0956C22.4321 15.052 22.4265 15.0191 22.4165 14.9977L13.5 7.23916Z" fill="white"/>
<path d="M25.8276 13.2299L22.4318 10.251V3.573C22.4318 3.42033 22.3853 3.29478 22.292 3.19652C22.1995 3.09838 22.0805 3.0493 21.9356 3.0493H18.9584C18.8136 3.0493 18.6947 3.09838 18.6015 3.19652C18.5086 3.29478 18.4622 3.42039 18.4622 3.573V6.76465L14.6786 3.42555C14.3482 3.14183 13.9553 3 13.5004 3C13.0455 3 12.6527 3.14183 12.3219 3.42555L1.17231 13.2299C1.06895 13.3171 1.0123 13.4344 1.00177 13.5817C0.991286 13.7289 1.0274 13.8575 1.11023 13.9665L2.07162 15.1778C2.15445 15.2759 2.26285 15.3359 2.39728 15.3579C2.52138 15.3689 2.64549 15.3306 2.76959 15.2434L13.5 5.79895L24.2306 15.2433C24.3135 15.3194 24.4218 15.3574 24.5563 15.3574H24.6029C24.7371 15.3359 24.8453 15.2755 24.9285 15.1775L25.89 13.9665C25.9727 13.8572 26.0089 13.7289 25.9982 13.5815C25.9876 13.4345 25.9307 13.3172 25.8276 13.2299Z" fill="white"/>
</svg>
