<svg width="27" height="27" viewBox="0 0 27 27" fill="none" xmlns="http://www.w3.org/2000/svg">
<path d="M14.8026 14.8573C16.0116 14.3384 16.9659 13.6321 17.6653 12.7381C18.3645 11.8442 18.7142 10.8709 18.7142 9.8179C18.7142 8.76489 18.3645 7.79144 17.665 6.89759C16.9657 6.00374 16.0115 5.29734 14.8025 4.77832C13.5934 4.25937 12.2783 4 10.8571 4C9.43595 4 8.12089 4.25953 6.91172 4.77832C5.70268 5.2973 4.74843 6.0037 4.04913 6.89759C3.34975 7.7916 3 8.76489 3 9.81794C3 10.7193 3.26453 11.5681 3.79277 12.3635C4.32097 13.1587 5.04646 13.8293 5.969 14.3746C5.89465 14.5566 5.81839 14.723 5.74024 14.8747C5.66206 15.0262 5.56914 15.1719 5.46117 15.3122C5.35328 15.4525 5.26967 15.5622 5.21009 15.6415C5.15056 15.721 5.05384 15.833 4.91984 15.9767C4.78587 16.1206 4.70027 16.2153 4.66313 16.2607C4.66313 16.2531 4.64824 16.2702 4.61845 16.3119C4.58862 16.3536 4.57189 16.3724 4.56822 16.3688C4.56446 16.3647 4.54957 16.3837 4.52353 16.4253C4.4975 16.4671 4.48444 16.4879 4.48444 16.4879L4.45649 16.5445C4.44547 16.5674 4.43789 16.5898 4.43421 16.6126C4.43046 16.6352 4.42858 16.66 4.42858 16.6864C4.42858 16.7129 4.43226 16.7374 4.43984 16.7602C4.45473 16.8586 4.4975 16.938 4.56818 16.9989C4.63881 17.0594 4.715 17.0896 4.79694 17.0896H4.83044C5.20239 17.0365 5.52239 16.976 5.7902 16.9077C6.93604 16.6048 7.97035 16.1198 8.89294 15.4533C9.56253 15.5745 10.2173 15.6351 10.8571 15.6351C12.2784 15.6356 13.5936 15.3763 14.8026 14.8573Z" fill="white"/>
<path d="M22.2075 15.2776C22.736 14.486 23 13.636 23 12.7269C23 11.795 22.7207 10.9233 22.1628 10.1129C21.6047 9.30246 20.8457 8.62814 19.886 8.0903C20.057 8.65839 20.1425 9.23409 20.1425 9.81751C20.1425 10.8325 19.8936 11.7946 19.3947 12.7037C18.8963 13.6126 18.182 14.4155 17.2519 15.1125C16.3888 15.7488 15.4066 16.2373 14.3054 16.5783C13.2044 16.9191 12.0548 17.0896 10.8568 17.0896C10.6337 17.0896 10.3063 17.0746 9.87479 17.0444C11.3703 18.0441 13.1263 18.5442 15.1425 18.5442C15.7825 18.5442 16.4372 18.4835 17.1069 18.3623C18.0295 19.0291 19.0638 19.5137 20.2096 19.8169C20.4774 19.8853 20.7974 19.9458 21.1694 19.9987C21.2587 20.0063 21.3407 19.9798 21.415 19.9192C21.4894 19.8586 21.5378 19.7755 21.56 19.6696C21.5566 19.6241 21.56 19.5991 21.5713 19.5955C21.5822 19.5919 21.5804 19.5671 21.5656 19.5218C21.5509 19.4762 21.5434 19.4535 21.5434 19.4535L21.5156 19.3968C21.5079 19.3819 21.4953 19.3609 21.4765 19.3345C21.4579 19.3082 21.4431 19.289 21.4319 19.2777C21.4209 19.2664 21.4043 19.2473 21.3818 19.221C21.3596 19.1947 21.3447 19.1776 21.3371 19.1699C21.3 19.1245 21.2144 19.0298 21.0806 18.8858C20.9465 18.742 20.85 18.6303 20.7904 18.5508C20.7309 18.4712 20.6471 18.3615 20.5393 18.2212C20.4315 18.0812 20.3384 17.9353 20.2602 17.7837C20.1821 17.6323 20.1059 17.4655 20.0315 17.2839C20.9541 16.738 21.6794 16.0695 22.2075 15.2776Z" fill="white"/>
</svg>
