<svg width="27" height="27" viewBox="0 0 27 27" fill="none" xmlns="http://www.w3.org/2000/svg">
<path d="M20.7608 7.49636H19.3778C19.5602 7.22237 19.6806 6.91481 19.715 6.58954C19.8246 5.55001 19.2478 4.61815 18.2657 4.20501C17.3629 3.82525 16.3485 3.98049 15.618 4.60927L13.8716 6.11131C13.5315 5.75829 13.0426 5.53642 12.5 5.53642C11.9564 5.53642 11.4667 5.75899 11.1265 6.11311L9.37794 4.6091C8.64626 3.98032 7.63221 3.82567 6.72989 4.20522C5.74806 4.61839 5.17108 5.55057 5.28107 6.59007C5.31547 6.91509 5.43578 7.22251 5.61817 7.49636H4.23912C3.55475 7.49636 3 8.02287 3 8.67232V10.4363C3 10.761 3.27739 11.0243 3.61958 11.0243H21.3804C21.7226 11.0243 22 10.761 22 10.4363V8.67232C22 8.02287 21.4452 7.49636 20.7608 7.49636ZM10.6413 7.30038V7.49636H7.72661C6.95652 7.49636 6.35045 6.81504 6.54279 6.05412C6.62751 5.71902 6.88238 5.43337 7.21202 5.28877C7.66468 5.09021 8.1661 5.15395 8.54628 5.48053L10.6418 7.28305C10.6417 7.28886 10.6413 7.29456 10.6413 7.30038ZM18.4855 6.43342C18.4393 7.04455 17.8576 7.49643 17.212 7.49643H14.3587V7.30045C14.3587 7.29351 14.3582 7.28664 14.3582 7.2797C14.8329 6.87132 15.8627 5.98552 16.4212 5.50504C16.7386 5.23199 17.1828 5.10454 17.5934 5.22076C18.1826 5.38755 18.5286 5.86306 18.4855 6.43342Z" fill="white"/>
<path d="M4.23912 12.2002V20.824C4.23912 21.4735 4.79386 22 5.47823 22H11.2608V12.2002H4.23912Z" fill="white"/>
<path d="M13.7391 12.2002V22H19.5217C20.2061 22 20.7608 21.4735 20.7608 20.824V12.2002H13.7391Z" fill="white"/>
</svg>
