<svg width="27" height="27" viewBox="0 0 27 27" fill="none" xmlns="http://www.w3.org/2000/svg">
<path d="M20.224 6.7816C18.4322 4.98895 16.0494 4.00095 13.5109 4C8.27996 4 4.0228 8.25505 4.0209 13.4858C4.01995 15.1578 4.45697 16.7898 5.28731 18.2281L4 23L8.9716 21.8249C10.3577 22.5811 11.9177 22.9791 13.5062 22.9801H13.51C18.74 22.9801 22.9971 18.7241 23 13.4943C23.0019 10.9588 22.0157 8.5752 20.224 6.7816ZM18.1538 16.8763C17.9562 17.4302 16.9881 17.9641 16.553 18.003C16.1179 18.0429 15.7103 18.1996 13.7076 17.4102C11.2973 16.4602 9.77534 13.9893 9.65753 13.8316C9.53878 13.6729 8.68943 12.5462 8.68943 11.3796C8.68943 10.213 9.30221 9.6392 9.51977 9.40265C9.73734 9.16515 9.99385 9.10625 10.1525 9.10625C10.3102 9.10625 10.4689 9.10625 10.6066 9.11195C10.7757 9.1186 10.9629 9.12715 11.1406 9.5214C11.3515 9.9907 11.8122 11.163 11.8711 11.2818C11.93 11.4005 11.9699 11.5392 11.8911 11.6969C11.8122 11.8546 11.7723 11.9534 11.6545 12.0921C11.5358 12.2308 11.4056 12.4009 11.2992 12.5073C11.1805 12.6251 11.057 12.7543 11.1947 12.9908C11.3334 13.2283 11.8084 14.0045 12.5134 14.6324C13.4197 15.4399 14.1826 15.6898 14.4201 15.8095C14.6576 15.9282 14.7954 15.9083 14.9341 15.7496C15.0728 15.5919 15.5269 15.058 15.6846 14.8205C15.8423 14.583 16.001 14.6229 16.2186 14.7018C16.4361 14.7806 17.6018 15.3544 17.8384 15.4732C18.0759 15.5919 18.2336 15.6508 18.2925 15.7496C18.3514 15.8475 18.3514 16.3225 18.1538 16.8763Z" fill="black"/>
</svg>
